<svg width="40" height="40" viewBox="0 0 40 40" fill="none" xmlns="http://www.w3.org/2000/svg">
<circle cx="20" cy="20" r="20" fill="#FF6D80"/>
<path fill-rule="evenodd" clip-rule="evenodd" d="M24.2784 14.2954C24.6722 13.9015 25.3107 13.9015 25.7046 14.2954C26.0984 14.6892 26.0984 15.3277 25.7046 15.7215L21.4261 19.9999L25.7046 24.2784C26.0985 24.6722 26.0985 25.3107 25.7046 25.7046C25.3108 26.0984 24.6723 26.0984 24.2785 25.7046L20 21.4261L15.7215 25.7046C15.3277 26.0984 14.6892 26.0984 14.2954 25.7046C13.9015 25.3107 13.9015 24.6722 14.2954 24.2784L18.5739 19.9999L14.2954 15.7215C13.9016 15.3277 13.9016 14.6892 14.2954 14.2954C14.6893 13.9015 15.3278 13.9015 15.7216 14.2954L20 18.5738L24.2784 14.2954Z" fill="white"/>
</svg>
