<svg width="100" height="100" viewBox="0 0 100 100" fill="none" xmlns="http://www.w3.org/2000/svg">
<path d="M66.1497 36.5906C68.5504 38.9047 70.4592 41.6797 71.7616 44.7493C73.0639 47.8189 73.7331 51.1199 73.729 54.4544C73.729 68.1751 62.606 79.2969 48.8865 79.2969C35.167 79.2969 24.0439 68.1751 24.0439 54.4544C24.0439 40.7337 35.1658 29.6118 48.8865 29.6118C55.3297 29.6032 61.5226 32.1067 66.1497 36.5906Z" fill="#538CCF"/>
<path d="M48.8867 55.9583H60.8789C61.0732 55.9583 61.2595 55.8811 61.3968 55.7437C61.5342 55.6064 61.6113 55.4201 61.6113 55.2258C61.6113 55.0316 61.5342 54.8453 61.3968 54.7079C61.2595 54.5706 61.0732 54.4934 60.8789 54.4934H49.6191V39.4629C49.6191 39.2686 49.542 39.0823 49.4046 38.945C49.2673 38.8076 49.081 38.7305 48.8867 38.7305C48.6925 38.7305 48.5062 38.8076 48.3688 38.945C48.2315 39.0823 48.1543 39.2686 48.1543 39.4629V55.2258C48.1543 55.4201 48.2315 55.6064 48.3688 55.7437C48.5062 55.8811 48.6925 55.9583 48.8867 55.9583Z" fill="white"/>
<path d="M48.8865 80.0293C62.9885 80.0293 74.4614 68.5565 74.4614 54.4543C74.4849 47.7856 71.8798 41.3761 67.2104 36.6147L72.5083 31.7837L75.434 34.7524C75.5703 34.8908 75.7561 34.9693 75.9503 34.9707C76.0465 34.9714 76.1419 34.9532 76.231 34.917C76.3201 34.8808 76.4013 34.8275 76.4698 34.7599C76.5383 34.6924 76.5928 34.6121 76.6303 34.5235C76.6677 34.4349 76.6874 34.3398 76.6881 34.2436C76.6888 34.1474 76.6705 34.052 76.6343 33.9629C76.5982 33.8738 76.5448 33.7926 76.4773 33.7241L70.6522 27.8135C70.5159 27.6751 70.3301 27.5966 70.1359 27.5952C69.9416 27.5938 69.7547 27.6696 69.6164 27.806C69.478 27.9423 69.3995 28.1281 69.3981 28.3223C69.3967 28.5166 69.4725 28.7034 69.6089 28.8418L71.4792 30.7396L66.157 35.5927C61.635 31.4341 55.7602 29.0535 49.6189 28.891V21.4355H53.4263C53.6205 21.4355 53.8068 21.3584 53.9442 21.221C54.0815 21.0837 54.1587 20.8974 54.1587 20.7031C54.1587 20.5089 54.0815 20.3226 53.9442 20.1852C53.8068 20.0479 53.6205 19.9707 53.4263 19.9707H44.3455C44.1512 19.9707 43.9649 20.0479 43.8276 20.1852C43.6902 20.3226 43.613 20.5089 43.613 20.7031C43.613 20.8974 43.6902 21.0837 43.8276 21.221C43.9649 21.3584 44.1512 21.4355 44.3455 21.4355H48.1541V28.8906C34.3894 29.2798 23.3115 40.5973 23.3115 54.4543C23.3114 57.8129 23.9728 61.1387 25.258 64.2416C26.5432 67.3446 28.427 70.164 30.8019 72.5389C33.1768 74.9138 35.9962 76.7976 39.0992 78.0828C42.2021 79.3681 45.5279 80.0295 48.8865 80.0293ZM48.8865 30.3442C55.2808 30.3445 61.4131 32.8848 65.9346 37.4062C70.456 41.9277 72.9963 48.06 72.9966 54.4543C72.9966 67.749 62.1809 78.5645 48.8865 78.5645C35.592 78.5645 24.7764 67.749 24.7764 54.4543C24.7764 41.1597 35.5922 30.3442 48.8865 30.3442Z" fill="#538CCF"/>
</svg>
