<svg width="100" height="100" viewBox="0 0 100 100" fill="none" xmlns="http://www.w3.org/2000/svg">
<g clip-path="url(#clip0)">
<path d="M49.6116 22.9741L55.9006 28.656L64.1806 26.8713L66.7787 34.9449L74.8402 37.543L73.0677 45.8231L78.7496 52.112L73.0677 58.401L74.8402 66.681L66.7787 69.2791L64.1806 77.3406L55.9006 75.5681L49.6116 81.25L43.3226 75.5681L35.0426 77.3406L32.4445 69.2791L24.3709 66.681L26.1555 58.401L20.4736 52.112L26.1555 45.8231L24.3709 37.543L32.4445 34.9449L35.0426 26.8713L43.3226 28.656L49.6116 22.9741Z" fill="#538CCF"/>
<path d="M56.3714 45.5074C56.3714 49.1203 53.4426 52.0491 49.8298 52.0491C46.2169 52.0491 43.2881 49.1203 43.2881 45.5074C43.2881 41.8946 46.2169 38.9658 49.8298 38.9658C53.4426 38.9658 56.3714 41.8946 56.3714 45.5074Z" stroke="white"/>
<path fill-rule="evenodd" clip-rule="evenodd" d="M61.421 62.4074C60.7256 56.6236 55.8013 52.1407 49.8301 52.1407C43.8588 52.1407 38.9346 56.6236 38.2391 62.4074H37.2324C37.933 56.07 43.3059 51.1407 49.8301 51.1407C56.3543 51.1407 61.7272 56.07 62.4277 62.4074H61.421ZM49.8615 76.4907H49.7986C49.8091 76.4908 49.8196 76.4908 49.8301 76.4908C49.8406 76.4908 49.851 76.4908 49.8615 76.4907Z" fill="white"/>
</g>
<defs>
<clipPath id="clip0">
<rect width="100" height="100" fill="white"/>
</clipPath>
</defs>
</svg>
