<svg width="36" height="36" viewBox="0 0 36 36" fill="none" xmlns="http://www.w3.org/2000/svg">
<path d="M29.939 13.0574C29.8828 11.782 29.6765 10.9051 29.381 10.1453C29.0762 9.33876 28.6073 8.61668 27.9929 8.01641C27.3927 7.4068 26.6658 6.9331 25.8686 6.63306C25.1044 6.33759 24.2321 6.13134 22.9567 6.0751C21.6717 6.0141 21.2638 6 18.0047 6C14.7456 6 14.3377 6.0141 13.0574 6.07034C11.782 6.12658 10.9051 6.33302 10.1455 6.6283C9.33876 6.9331 8.61668 7.40204 8.01641 8.01641C7.4068 8.61668 6.93329 9.34353 6.63306 10.1407C6.33759 10.9051 6.13134 11.7772 6.0751 13.0527C6.0141 14.3377 6 14.7456 6 18.0047C6 21.2638 6.0141 21.6717 6.07034 22.9519C6.12658 24.2274 6.33302 25.1042 6.62848 25.8641C6.93329 26.6706 7.4068 27.3927 8.01641 27.9929C8.61668 28.6026 9.34353 29.0763 10.1407 29.3763C10.9051 29.6718 11.7772 29.878 13.0529 29.9343C14.3329 29.9907 14.741 30.0046 18.0001 30.0046C21.2592 30.0046 21.6671 29.9907 22.9473 29.9343C24.2228 29.878 25.0997 29.6718 25.8593 29.3763C27.4725 28.7526 28.748 27.4771 29.3717 25.8641C29.667 25.0997 29.8734 24.2274 29.9297 22.9519C29.9859 21.6717 30 21.2638 30 18.0047C30 14.7456 29.9952 14.3377 29.939 13.0574ZM27.7773 22.8581C27.7257 24.0305 27.5288 24.6635 27.3646 25.0856C26.9613 26.1313 26.1313 26.9613 25.0856 27.3646C24.6635 27.5288 24.0259 27.7257 22.8581 27.7772C21.592 27.8336 21.2123 27.8475 18.0094 27.8475C14.8066 27.8475 14.4221 27.8336 13.1606 27.7772C11.9882 27.7257 11.3552 27.5288 10.9331 27.3646C10.4127 27.1723 9.93903 26.8675 9.55454 26.4689C9.15595 26.0797 8.85115 25.6107 8.65881 25.0903C8.49468 24.6683 8.29777 24.0305 8.2463 22.8629C8.18988 21.5968 8.17596 21.2169 8.17596 18.014C8.17596 14.8112 8.18988 14.4267 8.2463 13.1653C8.29777 11.993 8.49468 11.3599 8.65881 10.9379C8.85115 10.4173 9.15595 9.9438 9.55931 9.55913C9.94837 9.16053 10.4173 8.85573 10.9379 8.66357C11.3599 8.49945 11.9978 8.30253 13.1653 8.25088C14.4314 8.19464 14.8114 8.18054 18.014 8.18054C21.2216 8.18054 21.6013 8.19464 22.8629 8.25088C24.0352 8.30253 24.6683 8.49945 25.0903 8.66357C25.6107 8.85573 26.0844 9.16053 26.4689 9.55913C26.8675 9.94838 27.1723 10.4173 27.3646 10.9379C27.5288 11.3599 27.7257 11.9976 27.7773 13.1653C27.8336 14.4314 27.8477 14.8112 27.8477 18.014C27.8477 21.2169 27.8336 21.592 27.7773 22.8581Z" fill="white"/>
<path d="M18.0044 11.8384C14.6 11.8384 11.8379 14.6003 11.8379 18.0048C11.8379 21.4094 14.6 24.1713 18.0044 24.1713C21.4089 24.1713 24.1708 21.4094 24.1708 18.0048C24.1708 14.6003 21.4089 11.8384 18.0044 11.8384ZM18.0044 22.0049C15.7958 22.0049 14.0043 20.2136 14.0043 18.0048C14.0043 15.7961 15.7958 14.0048 18.0044 14.0048C20.2131 14.0048 22.0044 15.7961 22.0044 18.0048C22.0044 20.2136 20.2131 22.0049 18.0044 22.0049Z" fill="white"/>
<path d="M25.855 11.5949C25.855 12.3899 25.2104 13.0345 24.4152 13.0345C23.6202 13.0345 22.9756 12.3899 22.9756 11.5949C22.9756 10.7997 23.6202 10.1553 24.4152 10.1553C25.2104 10.1553 25.855 10.7997 25.855 11.5949Z" fill="white"/>
</svg>
