<svg width="100" height="100" viewBox="0 0 100 100" fill="none" xmlns="http://www.w3.org/2000/svg">
<g clip-path="url(#clip0)">
<path d="M73.9697 31.4179L50.4048 19.2877C50.1509 19.1562 49.8489 19.1562 49.5949 19.2877L26.03 31.4179C25.7385 31.5707 25.5556 31.8723 25.5547 32.2014V43.4688C25.5547 59.0408 33.1778 70.8629 49.551 80.6867C49.8277 80.8507 50.1721 80.8507 50.4488 80.6867C66.8218 70.8629 74.4451 59.0408 74.4451 43.4688V32.2014C74.4441 31.8723 74.2612 31.5706 73.9697 31.4179Z" fill="#538CCF"/>
<mask id="path-2-inside-1" fill="white">
<path fill-rule="evenodd" clip-rule="evenodd" d="M47.25 37.5C46.6977 37.5 46.25 37.9477 46.25 38.5V45L39.75 45C39.1977 45 38.75 45.4477 38.75 46V51.5C38.75 52.0523 39.1977 52.5 39.75 52.5H46.25V59C46.25 59.5523 46.6977 60 47.25 60H52.75C53.3023 60 53.75 59.5523 53.75 59V52.5H60.25C60.8023 52.5 61.25 52.0523 61.25 51.5V46C61.25 45.4477 60.8023 45 60.25 45L53.75 45V38.5C53.75 37.9477 53.3023 37.5 52.75 37.5H47.25Z"/>
</mask>
<path d="M46.25 45V46L47.25 46V45H46.25ZM39.75 45L39.75 44H39.75V45ZM46.25 52.5H47.25V51.5H46.25V52.5ZM53.75 52.5V51.5H52.75V52.5H53.75ZM60.25 45V46V45ZM53.75 45H52.75V46H53.75V45ZM47.25 38.5L47.25 38.5V36.5C46.1454 36.5 45.25 37.3954 45.25 38.5H47.25ZM47.25 45V38.5H45.25V45H47.25ZM39.75 46H46.25V44L39.75 44L39.75 46ZM39.75 46V44C38.6454 44 37.75 44.8954 37.75 46H39.75ZM39.75 51.5V46H37.75V51.5H39.75ZM39.75 51.5H39.75H37.75C37.75 52.6046 38.6454 53.5 39.75 53.5V51.5ZM46.25 51.5H39.75V53.5H46.25V51.5ZM47.25 59V52.5H45.25V59H47.25ZM47.25 59H47.25H45.25C45.25 60.1046 46.1454 61 47.25 61V59ZM52.75 59H47.25V61H52.75V59ZM52.75 59V61C53.8546 61 54.75 60.1046 54.75 59H52.75ZM52.75 52.5V59H54.75V52.5H52.75ZM60.25 51.5H53.75V53.5H60.25V51.5ZM60.25 51.5V53.5C61.3546 53.5 62.25 52.6046 62.25 51.5H60.25ZM60.25 46V51.5H62.25V46H60.25ZM60.25 46H62.25C62.25 44.8954 61.3546 44 60.25 44V46ZM53.75 46L60.25 46V44L53.75 44V46ZM52.75 38.5V45H54.75V38.5H52.75ZM52.75 38.5H54.75C54.75 37.3954 53.8546 36.5 52.75 36.5V38.5ZM47.25 38.5H52.75V36.5H47.25V38.5Z" fill="white" mask="url(#path-2-inside-1)"/>
</g>
<defs>
<clipPath id="clip0">
<rect width="100" height="100" fill="white"/>
</clipPath>
</defs>
</svg>
