<svg width="100" height="100" viewBox="0 0 100 100" fill="none" xmlns="http://www.w3.org/2000/svg">
<path d="M78.682 47.5488C78.2442 46.8154 77.5088 46.4111 76.5966 46.4111C74.9032 46.4172 72.8655 47.0887 71.2788 48.1624C69.815 49.1528 67.693 50.9884 65.9021 54.1181C65.5659 54.7052 65.0143 55.1034 64.4241 55.1979C64.4221 55.0618 64.4231 54.9064 64.4231 54.7601C64.4231 54.4452 64.4241 54.0714 64.4109 53.659V31.1739C64.4109 28.9331 62.5885 27.1107 60.3476 27.1107C58.1068 27.1107 56.2844 28.9331 56.2844 31.1739V46.919C56.2844 47.1984 56.0558 47.4269 55.7765 47.4269C55.4971 47.4269 55.2686 47.1984 55.2686 46.919V24.0633C55.2686 21.8224 53.4462 20 51.2053 20C48.9644 20 47.1421 21.8224 47.1421 24.0633V46.919C47.1421 47.1984 46.9135 47.4269 46.6342 47.4269C46.3548 47.4269 46.1263 47.1984 46.1263 46.919V28.6344C46.1263 26.6739 44.5314 25.0791 42.5709 25.0791C40.6104 25.0791 39.0156 26.6739 39.0156 28.6344V48.9507C39.0156 49.23 38.787 49.4586 38.5077 49.4586C38.2283 49.4586 37.9998 49.23 37.9998 48.9507V36.253C37.9998 34.2925 36.4049 32.6977 34.4343 32.6977C32.4737 32.6977 30.8789 34.2925 30.8789 36.253L30.8809 63.8801C31.8642 78.0842 40.5769 80 48.9705 80C55.9248 80 62.171 76.5503 65.251 71.0365C65.6471 70.3965 66.7188 68.7123 67.9896 66.7152C71.1671 61.7245 73.8285 57.5312 74.2216 56.7856C75.0983 55.1258 76.0765 53.8286 77.0496 53.0342C77.9303 52.315 78.4687 51.3978 78.9065 50.5922C79.132 50.1737 79.3291 48.6347 78.682 47.5488Z" fill="#538CCF"/>
</svg>
