<svg width="100" height="100" viewBox="0 0 100 100" fill="none" xmlns="http://www.w3.org/2000/svg">
<path d="M26.75 30.75C26.75 28.5409 28.5409 26.75 30.75 26.75H69.25C71.4591 26.75 73.25 28.5409 73.25 30.75V69.25C73.25 71.4591 71.4591 73.25 69.25 73.25H30.75C28.5409 73.25 26.75 71.4591 26.75 69.25V30.75Z" fill="#538CCF"/>
<rect x="36.75" y="36.75" width="26.5" height="26.5" rx="1.5" stroke="white"/>
<path d="M76.8103 41.4224C77.1917 41.4224 77.5 41.1141 77.5 40.7328C77.5 40.3514 77.1917 40.0431 76.8103 40.0431H71.9828V32.1552H76.8103C77.1917 32.1552 77.5 31.8469 77.5 31.4655C77.5 31.0841 77.1917 30.7759 76.8103 30.7759H71.9131C71.6379 29.4269 70.5731 28.3621 69.2241 28.0869V23.1897C69.2241 22.8083 68.9159 22.5 68.5345 22.5C68.1531 22.5 67.8448 22.8083 67.8448 23.1897V28.0172H59.9569V23.1897C59.9569 22.8083 59.6486 22.5 59.2672 22.5C58.8859 22.5 58.5776 22.8083 58.5776 23.1897V28.0172H50.6897V23.1897C50.6897 22.8083 50.3807 22.5 50 22.5C49.6193 22.5 49.3103 22.8083 49.3103 23.1897V28.0172H41.4224V23.1897C41.4224 22.8083 41.1134 22.5 40.7328 22.5C40.3521 22.5 40.0431 22.8083 40.0431 23.1897V28.0172H32.1552V23.1897C32.1552 22.8083 31.8462 22.5 31.4655 22.5C31.0848 22.5 30.7759 22.8083 30.7759 23.1897V28.0869C29.4269 28.3621 28.3621 29.4269 28.0869 30.7759H23.1897C22.809 30.7759 22.5 31.0841 22.5 31.4655C22.5 31.8469 22.809 32.1552 23.1897 32.1552H28.0172V40.0431H23.1897C22.809 40.0431 22.5 40.3514 22.5 40.7328C22.5 41.1141 22.809 41.4224 23.1897 41.4224H28.0172V49.3103H23.1897C22.809 49.3103 22.5 49.6186 22.5 50C22.5 50.3814 22.809 50.6897 23.1897 50.6897H28.0172V58.5776H23.1897C22.809 58.5776 22.5 58.8859 22.5 59.2672C22.5 59.6486 22.809 59.9569 23.1897 59.9569H28.0172V67.8448H23.1897C22.809 67.8448 22.5 68.1531 22.5 68.5345C22.5 68.9159 22.809 69.2241 23.1897 69.2241H28.0869C28.3621 70.5731 29.4269 71.6379 30.7759 71.9131V76.8103C30.7759 77.1917 31.0848 77.5 31.4655 77.5C31.8462 77.5 32.1552 77.1917 32.1552 76.8103V71.9828H40.0431V76.8103C40.0431 77.1917 40.3521 77.5 40.7328 77.5C41.1134 77.5 41.4224 77.1917 41.4224 76.8103V71.9828H49.3103V76.8103C49.3103 77.1917 49.6193 77.5 50 77.5C50.3807 77.5 50.6897 77.1917 50.6897 76.8103V71.9828H58.5776V76.8103C58.5776 77.1917 58.8859 77.5 59.2672 77.5C59.6486 77.5 59.9569 77.1917 59.9569 76.8103V71.9828H67.8448V76.8103C67.8448 77.1917 68.1531 77.5 68.5345 77.5C68.9159 77.5 69.2241 77.1917 69.2241 76.8103V71.9131C70.5731 71.6379 71.6379 70.5731 71.9131 69.2241H76.8103C77.1917 69.2241 77.5 68.9159 77.5 68.5345C77.5 68.1531 77.1917 67.8448 76.8103 67.8448H71.9828V59.9569H76.8103C77.1917 59.9569 77.5 59.6486 77.5 59.2672C77.5 58.8859 77.1917 58.5776 76.8103 58.5776H71.9828V50.6897H76.8103C77.1917 50.6897 77.5 50.3814 77.5 50C77.5 49.6186 77.1917 49.3103 76.8103 49.3103H71.9828V41.4224H76.8103ZM70.6034 68.5345C70.6034 69.6752 69.6752 70.6034 68.5345 70.6034H31.4655C30.3248 70.6034 29.3966 69.6752 29.3966 68.5345V31.4655C29.3966 30.3248 30.3248 29.3966 31.4655 29.3966H68.5345C69.6752 29.3966 70.6034 30.3248 70.6034 31.4655V68.5345Z" fill="#538CCF"/>
</svg>
