<svg width="140" height="50" viewBox="0 0 140 50" fill="none" xmlns="http://www.w3.org/2000/svg">
<rect x="0.5" y="0.5" width="139" height="49" rx="7.5" fill="white" stroke="#E2E5E9"/>
<path d="M49.8691 18.8418V17.3945H53.6074V20.8164C53.2441 21.168 52.7168 21.4785 52.0254 21.748C51.3379 22.0137 50.6406 22.1465 49.9336 22.1465C49.0352 22.1465 48.252 21.959 47.584 21.584C46.916 21.2051 46.4141 20.666 46.0781 19.9668C45.7422 19.2637 45.5742 18.5 45.5742 17.6758C45.5742 16.7812 45.7617 15.9863 46.1367 15.291C46.5117 14.5957 47.0605 14.0625 47.7832 13.6914C48.334 13.4062 49.0195 13.2637 49.8398 13.2637C50.9062 13.2637 51.7383 13.4883 52.3359 13.9375C52.9375 14.3828 53.3242 15 53.4961 15.7891L51.7734 16.1113C51.6523 15.6895 51.4238 15.3574 51.0879 15.1152C50.7559 14.8691 50.3398 14.7461 49.8398 14.7461C49.082 14.7461 48.4785 14.9863 48.0293 15.4668C47.584 15.9473 47.3613 16.6602 47.3613 17.6055C47.3613 18.625 47.5879 19.3906 48.041 19.9023C48.4941 20.4102 49.0879 20.6641 49.8223 20.6641C50.1855 20.6641 50.5488 20.5938 50.9121 20.4531C51.2793 20.3086 51.5938 20.1348 51.8555 19.9316V18.8418H49.8691ZM54.8203 18.8008C54.8203 18.2539 54.9551 17.7246 55.2246 17.2129C55.4941 16.7012 55.875 16.3105 56.3672 16.041C56.8633 15.7715 57.416 15.6367 58.0254 15.6367C58.9668 15.6367 59.7383 15.9434 60.3398 16.5566C60.9414 17.166 61.2422 17.9375 61.2422 18.8711C61.2422 19.8125 60.9375 20.5938 60.3281 21.2148C59.7227 21.832 58.959 22.1406 58.0371 22.1406C57.4668 22.1406 56.9219 22.0117 56.4023 21.7539C55.8867 21.4961 55.4941 21.1191 55.2246 20.623C54.9551 20.123 54.8203 19.5156 54.8203 18.8008ZM56.5078 18.8887C56.5078 19.5059 56.6543 19.9785 56.9473 20.3066C57.2402 20.6348 57.6016 20.7988 58.0312 20.7988C58.4609 20.7988 58.8203 20.6348 59.1094 20.3066C59.4023 19.9785 59.5488 19.502 59.5488 18.877C59.5488 18.2676 59.4023 17.7988 59.1094 17.4707C58.8203 17.1426 58.4609 16.9785 58.0312 16.9785C57.6016 16.9785 57.2402 17.1426 56.9473 17.4707C56.6543 17.7988 56.5078 18.2715 56.5078 18.8887ZM62.1562 18.8008C62.1562 18.2539 62.291 17.7246 62.5605 17.2129C62.8301 16.7012 63.2109 16.3105 63.7031 16.041C64.1992 15.7715 64.752 15.6367 65.3613 15.6367C66.3027 15.6367 67.0742 15.9434 67.6758 16.5566C68.2773 17.166 68.5781 17.9375 68.5781 18.8711C68.5781 19.8125 68.2734 20.5938 67.6641 21.2148C67.0586 21.832 66.2949 22.1406 65.373 22.1406C64.8027 22.1406 64.2578 22.0117 63.7383 21.7539C63.2227 21.4961 62.8301 21.1191 62.5605 20.623C62.291 20.123 62.1562 19.5156 62.1562 18.8008ZM63.8438 18.8887C63.8438 19.5059 63.9902 19.9785 64.2832 20.3066C64.5762 20.6348 64.9375 20.7988 65.3672 20.7988C65.7969 20.7988 66.1562 20.6348 66.4453 20.3066C66.7383 19.9785 66.8848 19.502 66.8848 18.877C66.8848 18.2676 66.7383 17.7988 66.4453 17.4707C66.1562 17.1426 65.7969 16.9785 65.3672 16.9785C64.9375 16.9785 64.5762 17.1426 64.2832 17.4707C63.9902 17.7988 63.8438 18.2715 63.8438 18.8887ZM69.7207 22.4102L71.6016 22.6387C71.6328 22.8574 71.7051 23.0078 71.8184 23.0898C71.9746 23.207 72.2207 23.2656 72.5566 23.2656C72.9863 23.2656 73.3086 23.2012 73.5234 23.0723C73.668 22.9863 73.7773 22.8477 73.8516 22.6562C73.9023 22.5195 73.9277 22.2676 73.9277 21.9004V20.9922C73.4355 21.6641 72.8145 22 72.0645 22C71.2285 22 70.5664 21.6465 70.0781 20.9395C69.6953 20.3809 69.5039 19.6855 69.5039 18.8535C69.5039 17.8105 69.7539 17.0137 70.2539 16.4629C70.7578 15.9121 71.3828 15.6367 72.1289 15.6367C72.8984 15.6367 73.5332 15.9746 74.0332 16.6504V15.7773H75.5742V21.3613C75.5742 22.0957 75.5137 22.6445 75.3926 23.0078C75.2715 23.3711 75.1016 23.6562 74.8828 23.8633C74.6641 24.0703 74.3711 24.2324 74.0039 24.3496C73.6406 24.4668 73.1797 24.5254 72.6211 24.5254C71.5664 24.5254 70.8184 24.3438 70.377 23.9805C69.9355 23.6211 69.7148 23.1641 69.7148 22.6094C69.7148 22.5547 69.7168 22.4883 69.7207 22.4102ZM71.1914 18.7598C71.1914 19.4199 71.3184 19.9043 71.5723 20.2129C71.8301 20.5176 72.1465 20.6699 72.5215 20.6699C72.9238 20.6699 73.2637 20.5137 73.541 20.2012C73.8184 19.8848 73.957 19.418 73.957 18.8008C73.957 18.1562 73.8242 17.6777 73.5586 17.3652C73.293 17.0527 72.957 16.8965 72.5508 16.8965C72.1562 16.8965 71.8301 17.0508 71.5723 17.3594C71.3184 17.6641 71.1914 18.1309 71.1914 18.7598ZM77.209 22V13.4102H78.8555V22H77.209ZM84.1523 20.0195L85.793 20.2949C85.582 20.8965 85.248 21.3555 84.791 21.6719C84.3379 21.9844 83.7695 22.1406 83.0859 22.1406C82.0039 22.1406 81.2031 21.7871 80.6836 21.0801C80.2734 20.5137 80.0684 19.7988 80.0684 18.9355C80.0684 17.9043 80.3379 17.0977 80.877 16.5156C81.416 15.9297 82.0977 15.6367 82.9219 15.6367C83.8477 15.6367 84.5781 15.9434 85.1133 16.5566C85.6484 17.166 85.9043 18.1016 85.8809 19.3633H81.7559C81.7676 19.8516 81.9004 20.2324 82.1543 20.5059C82.4082 20.7754 82.7246 20.9102 83.1035 20.9102C83.3613 20.9102 83.5781 20.8398 83.7539 20.6992C83.9297 20.5586 84.0625 20.332 84.1523 20.0195ZM84.2461 18.3555C84.2344 17.8789 84.1113 17.5176 83.877 17.2715C83.6426 17.0215 83.3574 16.8965 83.0215 16.8965C82.6621 16.8965 82.3652 17.0273 82.1309 17.2891C81.8965 17.5508 81.7812 17.9062 81.7852 18.3555H84.2461ZM90.5859 22V13.4102H94.2363C95.1543 13.4102 95.8203 13.4883 96.2344 13.6445C96.6523 13.7969 96.9863 14.0703 97.2363 14.4648C97.4863 14.8594 97.6113 15.3105 97.6113 15.8184C97.6113 16.4629 97.4219 16.9961 97.043 17.418C96.6641 17.8359 96.0977 18.0996 95.3438 18.209C95.7188 18.4277 96.0273 18.668 96.2695 18.9297C96.5156 19.1914 96.8457 19.6562 97.2598 20.3242L98.3086 22H96.2344L94.9805 20.1309C94.5352 19.4629 94.2305 19.043 94.0664 18.8711C93.9023 18.6953 93.7285 18.5762 93.5449 18.5137C93.3613 18.4473 93.0703 18.4141 92.6719 18.4141H92.3203V22H90.5859ZM92.3203 17.043H93.6035C94.4355 17.043 94.9551 17.0078 95.1621 16.9375C95.3691 16.8672 95.5312 16.7461 95.6484 16.5742C95.7656 16.4023 95.8242 16.1875 95.8242 15.9297C95.8242 15.6406 95.7461 15.4082 95.5898 15.2324C95.4375 15.0527 95.2207 14.9395 94.9395 14.8926C94.7988 14.873 94.377 14.8633 93.6738 14.8633H92.3203V17.043ZM100.471 17.6758L98.9766 17.4062C99.1445 16.8047 99.4336 16.3594 99.8438 16.0703C100.254 15.7812 100.863 15.6367 101.672 15.6367C102.406 15.6367 102.953 15.7246 103.312 15.9004C103.672 16.0723 103.924 16.293 104.068 16.5625C104.217 16.8281 104.291 17.3184 104.291 18.0332L104.273 19.9551C104.273 20.502 104.299 20.9062 104.35 21.168C104.404 21.4258 104.504 21.7031 104.648 22H103.02C102.977 21.8906 102.924 21.7285 102.861 21.5137C102.834 21.416 102.814 21.3516 102.803 21.3203C102.521 21.5938 102.221 21.7988 101.9 21.9355C101.58 22.0723 101.238 22.1406 100.875 22.1406C100.234 22.1406 99.7285 21.9668 99.3574 21.6191C98.9902 21.2715 98.8066 20.832 98.8066 20.3008C98.8066 19.9492 98.8906 19.6367 99.0586 19.3633C99.2266 19.0859 99.4609 18.875 99.7617 18.7305C100.066 18.582 100.504 18.4531 101.074 18.3438C101.844 18.1992 102.377 18.0645 102.674 17.9395V17.7754C102.674 17.459 102.596 17.2344 102.439 17.1016C102.283 16.9648 101.988 16.8965 101.555 16.8965C101.262 16.8965 101.033 16.9551 100.869 17.0723C100.705 17.1855 100.572 17.3867 100.471 17.6758ZM102.674 19.0117C102.463 19.082 102.129 19.166 101.672 19.2637C101.215 19.3613 100.916 19.457 100.775 19.5508C100.561 19.7031 100.453 19.8965 100.453 20.1309C100.453 20.3613 100.539 20.5605 100.711 20.7285C100.883 20.8965 101.102 20.9805 101.367 20.9805C101.664 20.9805 101.947 20.8828 102.217 20.6875C102.416 20.5391 102.547 20.3574 102.609 20.1426C102.652 20.002 102.674 19.7344 102.674 19.3398V19.0117ZM108.773 15.7773V17.0898H107.648V19.5977C107.648 20.1055 107.658 20.4023 107.678 20.4883C107.701 20.5703 107.75 20.6387 107.824 20.6934C107.902 20.748 107.996 20.7754 108.105 20.7754C108.258 20.7754 108.479 20.7227 108.768 20.6172L108.908 21.8945C108.525 22.0586 108.092 22.1406 107.607 22.1406C107.311 22.1406 107.043 22.0918 106.805 21.9941C106.566 21.8926 106.391 21.7637 106.277 21.6074C106.168 21.4473 106.092 21.2324 106.049 20.9629C106.014 20.7715 105.996 20.3848 105.996 19.8027V17.0898H105.24V15.7773H105.996V14.541L107.648 13.5801V15.7773H108.773ZM109.916 14.9336V13.4102H111.562V14.9336H109.916ZM109.916 22V15.7773H111.562V22H109.916ZM118.916 22H117.27V18.8242C117.27 18.1523 117.234 17.7188 117.164 17.5234C117.094 17.3242 116.979 17.1699 116.818 17.0605C116.662 16.9512 116.473 16.8965 116.25 16.8965C115.965 16.8965 115.709 16.9746 115.482 17.1309C115.256 17.2871 115.1 17.4941 115.014 17.752C114.932 18.0098 114.891 18.4863 114.891 19.1816V22H113.244V15.7773H114.773V16.6914C115.316 15.9883 116 15.6367 116.824 15.6367C117.188 15.6367 117.52 15.7031 117.82 15.8359C118.121 15.9648 118.348 16.1309 118.5 16.334C118.656 16.5371 118.764 16.7676 118.822 17.0254C118.885 17.2832 118.916 17.6523 118.916 18.1328V22ZM120.439 22.4102L122.32 22.6387C122.352 22.8574 122.424 23.0078 122.537 23.0898C122.693 23.207 122.939 23.2656 123.275 23.2656C123.705 23.2656 124.027 23.2012 124.242 23.0723C124.387 22.9863 124.496 22.8477 124.57 22.6562C124.621 22.5195 124.646 22.2676 124.646 21.9004V20.9922C124.154 21.6641 123.533 22 122.783 22C121.947 22 121.285 21.6465 120.797 20.9395C120.414 20.3809 120.223 19.6855 120.223 18.8535C120.223 17.8105 120.473 17.0137 120.973 16.4629C121.477 15.9121 122.102 15.6367 122.848 15.6367C123.617 15.6367 124.252 15.9746 124.752 16.6504V15.7773H126.293V21.3613C126.293 22.0957 126.232 22.6445 126.111 23.0078C125.99 23.3711 125.82 23.6562 125.602 23.8633C125.383 24.0703 125.09 24.2324 124.723 24.3496C124.359 24.4668 123.898 24.5254 123.34 24.5254C122.285 24.5254 121.537 24.3438 121.096 23.9805C120.654 23.6211 120.434 23.1641 120.434 22.6094C120.434 22.5547 120.436 22.4883 120.439 22.4102ZM121.91 18.7598C121.91 19.4199 122.037 19.9043 122.291 20.2129C122.549 20.5176 122.865 20.6699 123.24 20.6699C123.643 20.6699 123.982 20.5137 124.26 20.2012C124.537 19.8848 124.676 19.418 124.676 18.8008C124.676 18.1562 124.543 17.6777 124.277 17.3652C124.012 17.0527 123.676 16.8965 123.27 16.8965C122.875 16.8965 122.549 17.0508 122.291 17.3594C122.037 17.6641 121.91 18.1309 121.91 18.7598Z" fill="#343A40"/>
<path d="M46.4565 35.9375L47.4717 35.8516C47.5469 36.3457 47.7205 36.7181 47.9927 36.9688C48.2684 37.2158 48.5996 37.3394 48.9863 37.3394C49.4518 37.3394 49.8457 37.1639 50.168 36.813C50.4902 36.4621 50.6514 35.9966 50.6514 35.4165C50.6514 34.8651 50.4956 34.43 50.1841 34.1113C49.8761 33.7926 49.4715 33.6333 48.9702 33.6333C48.6587 33.6333 48.3776 33.7049 48.127 33.8481C47.8763 33.9878 47.6794 34.1704 47.5361 34.396L46.6284 34.2778L47.3911 30.2334H51.3066V31.1572H48.1646L47.7402 33.2734C48.2129 32.944 48.7088 32.7793 49.228 32.7793C49.9155 32.7793 50.4956 33.0174 50.9683 33.4937C51.4409 33.9699 51.6772 34.5822 51.6772 35.3306C51.6772 36.0431 51.4696 36.659 51.0542 37.1782C50.5493 37.8156 49.86 38.1343 48.9863 38.1343C48.2702 38.1343 47.6847 37.9338 47.23 37.5327C46.7788 37.1317 46.521 36.5999 46.4565 35.9375ZM53.1221 38V36.8989H54.2231V38H53.1221ZM55.6411 34.1167C55.6411 33.1857 55.736 32.4373 55.9258 31.8716C56.1191 31.3022 56.4038 30.8636 56.7798 30.5557C57.1593 30.2477 57.6356 30.0938 58.2085 30.0938C58.631 30.0938 59.0016 30.1797 59.3203 30.3516C59.639 30.5199 59.9022 30.7651 60.1099 31.0874C60.3175 31.4061 60.4805 31.7964 60.5986 32.2583C60.7168 32.7166 60.7759 33.3361 60.7759 34.1167C60.7759 35.0405 60.681 35.7871 60.4912 36.3564C60.3014 36.9222 60.0168 37.3608 59.6372 37.6724C59.2612 37.9803 58.785 38.1343 58.2085 38.1343C57.4494 38.1343 56.8532 37.8621 56.4199 37.3179C55.9007 36.6626 55.6411 35.5955 55.6411 34.1167ZM56.6348 34.1167C56.6348 35.4093 56.7852 36.2705 57.0859 36.7002C57.3903 37.1263 57.7645 37.3394 58.2085 37.3394C58.6525 37.3394 59.0249 37.1245 59.3257 36.6948C59.63 36.2651 59.7822 35.4058 59.7822 34.1167C59.7822 32.8205 59.63 31.9593 59.3257 31.5332C59.0249 31.1071 58.6489 30.894 58.1978 30.894C57.7537 30.894 57.3993 31.082 57.1343 31.458C56.8013 31.9378 56.6348 32.8241 56.6348 34.1167Z" fill="#343A40"/>
<g clip-path="url(#clip0)">
<path d="M17.3189 27.5035L16.4835 30.6222L13.4301 30.6868C12.5176 28.9943 12 27.0578 12 25C12 23.0101 12.4839 21.1336 13.3418 19.4813H13.3424L16.0608 19.9797L17.2516 22.6818C17.0024 23.4084 16.8665 24.1884 16.8665 25C16.8666 25.8809 17.0262 26.7249 17.3189 27.5035Z" fill="#FBBB00"/>
<path d="M35.7902 22.7582C35.928 23.4841 35.9999 24.2338 35.9999 25C35.9999 25.8591 35.9095 26.6971 35.7375 27.5055C35.1533 30.2563 33.6269 32.6582 31.5124 34.358L31.5118 34.3574L28.0878 34.1827L27.6032 31.1576C29.0063 30.3347 30.1028 29.047 30.6804 27.5055H24.2637V22.7582H30.774H35.7902Z" fill="#518EF8"/>
<path d="M31.5114 34.3574L31.5121 34.358C29.4556 36.011 26.8433 37 23.9996 37C19.4297 37 15.4565 34.4457 13.4297 30.6868L17.3185 27.5035C18.3319 30.2081 20.9409 32.1334 23.9996 32.1334C25.3143 32.1334 26.546 31.778 27.6029 31.1576L31.5114 34.3574Z" fill="#28B446"/>
<path d="M31.6596 15.7626L27.7721 18.9453C26.6783 18.2615 25.3853 17.8666 24 17.8666C20.8721 17.8666 18.2143 19.8802 17.2517 22.6818L13.3425 19.4813H13.3418C15.339 15.6308 19.3622 13 24 13C26.9117 13 29.5814 14.0372 31.6596 15.7626Z" fill="#F14336"/>
</g>
<path d="M69.8098 29.5854C69.8697 29.4011 70.1303 29.4011 70.1902 29.5854L71.0777 32.3167C71.1044 32.3991 71.1812 32.4549 71.2679 32.4549H74.1397C74.3335 32.4549 74.414 32.7028 74.2573 32.8167L71.9339 34.5048C71.8638 34.5557 71.8345 34.646 71.8613 34.7284L72.7487 37.4597C72.8086 37.6439 72.5977 37.7972 72.4409 37.6833L70.1176 35.9952C70.0475 35.9443 69.9525 35.9443 69.8824 35.9952L67.5591 37.6833C67.4023 37.7972 67.1914 37.6439 67.2513 37.4597L68.1387 34.7284C68.1655 34.646 68.1362 34.5557 68.0661 34.5048L65.7427 32.8167C65.586 32.7028 65.6665 32.4549 65.8603 32.4549H68.7321C68.8188 32.4549 68.8956 32.3991 68.9223 32.3167L69.8098 29.5854Z" fill="#FBBB00"/>
<path d="M81.8098 29.5854C81.8697 29.4011 82.1303 29.4011 82.1902 29.5854L83.0777 32.3167C83.1044 32.3991 83.1812 32.4549 83.2679 32.4549H86.1397C86.3335 32.4549 86.414 32.7028 86.2573 32.8167L83.9339 34.5048C83.8638 34.5557 83.8345 34.646 83.8613 34.7284L84.7487 37.4597C84.8086 37.6439 84.5977 37.7972 84.4409 37.6833L82.1176 35.9952C82.0475 35.9443 81.9525 35.9443 81.8824 35.9952L79.5591 37.6833C79.4023 37.7972 79.1914 37.6439 79.2513 37.4597L80.1387 34.7284C80.1655 34.646 80.1362 34.5557 80.0661 34.5048L77.7427 32.8167C77.586 32.7028 77.6665 32.4549 77.8603 32.4549H80.7321C80.8188 32.4549 80.8956 32.3991 80.9223 32.3167L81.8098 29.5854Z" fill="#FBBB00"/>
<path d="M93.8098 29.5854C93.8697 29.4011 94.1303 29.4011 94.1902 29.5854L95.0777 32.3167C95.1044 32.3991 95.1812 32.4549 95.2679 32.4549H98.1397C98.3335 32.4549 98.414 32.7028 98.2573 32.8167L95.9339 34.5048C95.8638 34.5557 95.8345 34.646 95.8613 34.7284L96.7487 37.4597C96.8086 37.6439 96.5977 37.7972 96.4409 37.6833L94.1176 35.9952C94.0475 35.9443 93.9525 35.9443 93.8824 35.9952L91.5591 37.6833C91.4023 37.7972 91.1914 37.6439 91.2513 37.4597L92.1387 34.7284C92.1655 34.646 92.1362 34.5557 92.0661 34.5048L89.7427 32.8167C89.586 32.7028 89.6665 32.4549 89.8603 32.4549H92.7321C92.8188 32.4549 92.8956 32.3991 92.9223 32.3167L93.8098 29.5854Z" fill="#FBBB00"/>
<path d="M105.81 29.5854C105.87 29.4011 106.13 29.4011 106.19 29.5854L107.078 32.3167C107.104 32.3991 107.181 32.4549 107.268 32.4549H110.14C110.333 32.4549 110.414 32.7028 110.257 32.8167L107.934 34.5048C107.864 34.5557 107.834 34.646 107.861 34.7284L108.749 37.4597C108.809 37.6439 108.598 37.7972 108.441 37.6833L106.118 35.9952C106.047 35.9443 105.953 35.9443 105.882 35.9952L103.559 37.6833C103.402 37.7972 103.191 37.6439 103.251 37.4597L104.139 34.7284C104.166 34.646 104.136 34.5557 104.066 34.5048L101.743 32.8167C101.586 32.7028 101.667 32.4549 101.86 32.4549H104.732C104.819 32.4549 104.896 32.3991 104.922 32.3167L105.81 29.5854Z" fill="#FBBB00"/>
<path d="M117.81 29.5854C117.87 29.4011 118.13 29.4011 118.19 29.5854L119.078 32.3167C119.104 32.3991 119.181 32.4549 119.268 32.4549H122.14C122.333 32.4549 122.414 32.7028 122.257 32.8167L119.934 34.5048C119.864 34.5557 119.834 34.646 119.861 34.7284L120.749 37.4597C120.809 37.6439 120.598 37.7972 120.441 37.6833L118.118 35.9952C118.047 35.9443 117.953 35.9443 117.882 35.9952L115.559 37.6833C115.402 37.7972 115.191 37.6439 115.251 37.4597L116.139 34.7284C116.166 34.646 116.136 34.5557 116.066 34.5048L113.743 32.8167C113.586 32.7028 113.667 32.4549 113.86 32.4549H116.732C116.819 32.4549 116.896 32.3991 116.922 32.3167L117.81 29.5854Z" fill="#FBBB00"/>
<defs>
<clipPath id="clip0">
<rect width="24" height="24" fill="white" transform="translate(12 13)"/>
</clipPath>
</defs>
</svg>
