<?xml version="1.0" encoding="UTF-8" standalone="no"?>
<svg
   xmlns:dc="http://purl.org/dc/elements/1.1/"
   xmlns:cc="http://creativecommons.org/ns#"
   xmlns:rdf="http://www.w3.org/1999/02/22-rdf-syntax-ns#"
   xmlns:svg="http://www.w3.org/2000/svg"
   xmlns="http://www.w3.org/2000/svg"
   viewBox="0 0 1693.64 378.14932"
   height="378.14932"
   width="1693.64"
   xml:space="preserve"
   id="svg2"
   version="1.1"><metadata
     id="metadata8"><rdf:RDF><cc:Work
         rdf:about=""><dc:format>image/svg+xml</dc:format><dc:type
           rdf:resource="http://purl.org/dc/dcmitype/StillImage" /></cc:Work></rdf:RDF></metadata><defs
     id="defs6"><clipPath
       id="clipPath18"
       clipPathUnits="userSpaceOnUse"><path
         id="path16"
         d="M 0,283.612 H 1270.228 V 0 H 0 Z" /></clipPath></defs><g
     transform="matrix(1.3333333,0,0,-1.3333333,0,378.14933)"
     id="g10"><g
       id="g12"><g
         clip-path="url(#clipPath18)"
         id="g14"><g
           transform="translate(160.5786,222.9895)"
           id="g20"><path
             id="path22"
             style="fill:#5D6165;fill-opacity:1;fill-rule:nonzero;stroke:none"
             d="m 0,0 c 2.416,-2.273 3.625,-5.259 3.625,-8.954 0,-3.698 -1.209,-6.647 -3.625,-8.847 -2.418,-2.206 -5.543,-3.306 -9.382,-3.306 h -33.474 v -111.726 c 0,-3.695 -1.353,-6.788 -4.052,-9.272 -2.701,-2.489 -6.043,-3.733 -10.02,-3.733 -3.982,0 -7.25,1.244 -9.809,3.733 -2.559,2.484 -3.838,5.577 -3.838,9.272 v 111.726 h -33.475 c -3.837,0 -6.965,1.136 -9.382,3.411 -2.417,2.273 -3.623,5.258 -3.623,8.957 0,3.552 1.242,6.466 3.731,8.739 2.485,2.273 5.577,3.414 9.274,3.414 H -9.382 C -5.543,3.414 -2.418,2.273 0,0" /></g><g
           transform="translate(260.4517,187.4895)"
           id="g24"><path
             id="path26"
             style="fill:#5D6165;fill-opacity:1;fill-rule:nonzero;stroke:none"
             d="m 0,0 c 2.416,-2.488 3.625,-5.58 3.625,-9.273 v -90.619 c 0,-18.475 -4.977,-31.946 -14.925,-40.403 -9.951,-8.455 -23.24,-12.686 -39.872,-12.686 -4.834,0 -9.773,0.392 -14.817,1.173 -5.049,0.782 -9.135,1.811 -12.261,3.092 -6.966,2.985 -10.448,7.11 -10.448,12.364 0,0.997 0.213,2.133 0.641,3.415 0.852,3.125 2.307,5.509 4.369,7.139 2.06,1.637 4.298,2.455 6.718,2.455 1.418,0 2.771,-0.215 4.051,-0.64 0.993,-0.426 2.734,-1.137 5.223,-2.133 2.485,-0.993 5.117,-1.812 7.889,-2.452 2.772,-0.64 5.651,-0.959 8.635,-0.959 10.091,0 17.518,2.17 22.281,6.503 4.761,4.338 7.143,11.763 7.143,22.28 v 2.133 c -7.393,-9.242 -18.905,-13.86 -34.541,-13.86 -7.393,0 -13.932,1.743 -19.615,5.225 -5.687,3.48 -10.096,8.316 -13.22,14.497 -3.128,6.184 -4.691,13.254 -4.691,21.215 v 62.261 c 0,3.693 1.206,6.785 3.625,9.273 2.415,2.484 5.47,3.732 9.169,3.732 3.694,0 6.749,-1.248 9.168,-3.732 2.415,-2.488 3.624,-5.58 3.624,-9.273 v -54.585 c 0,-8.955 1.953,-15.386 5.863,-19.296 3.909,-3.91 9.629,-5.863 17.165,-5.863 7.388,0 13.113,2.167 17.163,6.503 4.052,4.336 6.077,10.554 6.077,18.656 v 54.585 c 0,3.693 1.206,6.785 3.625,9.273 2.415,2.484 5.47,3.732 9.169,3.732 C -5.473,3.732 -2.418,2.484 0,0" /></g><g
           transform="translate(370.043,108.7082)"
           id="g28"><path
             id="path30"
             style="fill:#5D6165;fill-opacity:1;fill-rule:nonzero;stroke:none"
             d="m 0,0 c 5.827,6.821 8.741,15.352 8.741,25.584 0,10.234 -2.877,18.727 -8.635,25.479 -5.756,6.751 -13.255,10.128 -22.494,10.128 -9.242,0 -16.774,-3.377 -22.601,-10.128 -5.83,-6.752 -8.741,-15.245 -8.741,-25.479 0,-10.232 2.911,-18.763 8.741,-25.584 5.827,-6.824 13.359,-10.235 22.601,-10.235 9.095,0 16.558,3.411 22.388,10.235 m 7.462,77.077 c 7.959,-5.047 14.249,-12.046 18.87,-21.003 4.618,-8.954 6.93,-19.118 6.93,-30.49 0,-11.372 -2.277,-21.57 -6.825,-30.595 -4.55,-9.03 -10.766,-16.066 -18.655,-21.11 -7.889,-5.047 -16.598,-7.568 -26.119,-7.568 -6.823,0 -13.256,1.384 -19.296,4.158 -6.043,2.773 -11.053,6.146 -15.032,10.128 v -41.792 c 0,-3.693 -1.209,-6.784 -3.624,-9.273 -2.419,-2.485 -5.474,-3.732 -9.169,-3.732 -3.698,0 -6.753,1.21 -9.168,3.625 -2.419,2.418 -3.625,5.543 -3.625,9.38 V 69.508 c 0,3.693 1.206,6.785 3.625,9.273 2.415,2.485 5.47,3.733 9.168,3.733 3.695,0 6.75,-1.248 9.169,-3.733 2.415,-2.488 3.624,-5.58 3.624,-9.273 v -0.855 c 3.412,4.266 8.172,7.998 14.286,11.195 6.11,3.199 12.507,4.798 19.189,4.798 9.809,0 18.69,-2.525 26.652,-7.569" /></g><g
           transform="translate(443.8125,146.6594)"
           id="g32"><path
             id="path34"
             style="fill:#5D6165;fill-opacity:1;fill-rule:nonzero;stroke:none"
             d="M 0,0 H 55.861 V 1.493 C 55.293,7.462 52.377,12.579 47.121,16.845 41.86,21.107 35.89,23.24 29.209,23.24 12.719,23.24 2.985,15.49 0,0 m 79.103,-18.122 c -2.559,-2.133 -5.543,-3.199 -8.956,-3.199 h -70.36 c 1.705,-8.391 5.612,-14.963 11.726,-19.722 6.11,-4.766 13.007,-7.144 20.682,-7.144 5.827,0 10.375,0.534 13.646,1.6 3.268,1.066 5.864,2.2 7.782,3.411 1.92,1.207 3.231,2.026 3.945,2.451 2.559,1.282 4.974,1.918 7.249,1.918 2.985,0 5.543,-1.063 7.676,-3.196 2.132,-2.133 3.198,-4.621 3.198,-7.465 0,-3.836 -1.992,-7.32 -5.969,-10.446 -3.983,-3.273 -9.313,-6.042 -15.992,-8.316 -6.683,-2.271 -13.432,-3.411 -20.255,-3.411 -11.94,0 -22.354,2.486 -31.237,7.462 -8.884,4.976 -15.744,11.834 -20.575,20.576 -4.834,8.744 -7.249,18.583 -7.249,29.532 0,12.223 2.558,22.952 7.675,32.194 5.118,9.239 11.867,16.312 20.255,21.214 8.386,4.906 17.342,7.358 26.865,7.358 9.382,0 18.231,-2.559 26.547,-7.676 8.315,-5.118 14.958,-12.012 19.935,-20.681 4.973,-8.673 7.463,-18.056 7.463,-28.147 -0.144,-3.41 -1.492,-6.183 -4.051,-8.313" /></g><g
           transform="translate(642.0063,222.9895)"
           id="g36"><path
             id="path38"
             style="fill:#5D6165;fill-opacity:1;fill-rule:nonzero;stroke:none"
             d="m 0,0 c 2.417,-2.273 3.625,-5.259 3.625,-8.954 0,-3.698 -1.208,-6.647 -3.625,-8.847 -2.417,-2.206 -5.543,-3.306 -9.381,-3.306 h -33.475 v -111.726 c 0,-3.695 -1.353,-6.788 -4.051,-9.272 -2.701,-2.489 -6.043,-3.733 -10.021,-3.733 -3.982,0 -7.25,1.244 -9.809,3.733 -2.558,2.484 -3.838,5.577 -3.838,9.272 v 111.726 h -33.475 c -3.836,0 -6.965,1.136 -9.381,3.411 -2.418,2.273 -3.624,5.258 -3.624,8.957 0,3.552 1.243,6.466 3.731,8.739 2.485,2.273 5.577,3.414 9.274,3.414 H -9.381 C -5.543,3.414 -2.417,2.273 0,0" /></g><g
           transform="translate(723.1348,189.7287)"
           id="g40"><path
             id="path42"
             style="fill:#5D6165;fill-opacity:1;fill-rule:nonzero;stroke:none"
             d="m 0,0 c 2.913,-2.417 4.371,-5.261 4.371,-8.527 0,-4.411 -1.14,-7.713 -3.412,-9.917 -2.275,-2.203 -4.977,-3.303 -8.102,-3.303 -2.131,0 -4.55,0.496 -7.249,1.492 -0.425,0.141 -1.386,0.426 -2.879,0.852 -1.492,0.425 -3.091,0.64 -4.796,0.64 -3.698,0 -7.249,-1.139 -10.662,-3.41 -3.41,-2.277 -6.218,-5.724 -8.422,-10.343 -2.204,-4.621 -3.305,-10.127 -3.305,-16.522 v -50.534 c 0,-3.696 -1.209,-6.788 -3.623,-9.273 -2.42,-2.488 -5.475,-3.732 -9.169,-3.732 -3.698,0 -6.753,1.244 -9.169,3.732 -2.418,2.485 -3.625,5.577 -3.625,9.273 v 88.059 c 0,3.694 1.207,6.785 3.625,9.274 2.416,2.484 5.471,3.732 9.169,3.732 3.694,0 6.749,-1.248 9.169,-3.732 2.414,-2.489 3.623,-5.58 3.623,-9.274 v -2.772 c 3.268,5.828 7.96,10.268 14.073,13.326 6.111,3.056 12.65,4.585 19.616,4.585 C -6.502,3.626 -2.914,2.415 0,0" /></g><g
           transform="translate(836.3027,187.4895)"
           id="g44"><path
             id="path46"
             style="fill:#5D6165;fill-opacity:1;fill-rule:nonzero;stroke:none"
             d="M 0,0 C 2.416,-2.488 3.625,-5.58 3.625,-9.273 V -63.43 c 0,-15.351 -4.23,-27.367 -12.687,-36.033 -8.459,-8.672 -20.504,-13.008 -36.138,-13.008 -15.64,0 -27.649,4.336 -36.034,13.008 -8.389,8.666 -12.58,20.682 -12.58,36.033 v 54.157 c 0,3.693 1.205,6.785 3.625,9.273 2.414,2.484 5.469,3.732 9.168,3.732 3.694,0 6.749,-1.248 9.168,-3.732 2.415,-2.488 3.624,-5.58 3.624,-9.273 V -63.43 c 0,-8.672 1.919,-15.106 5.757,-19.296 3.839,-4.195 9.595,-6.291 17.272,-6.291 7.815,0 13.645,2.096 17.483,6.291 3.838,4.19 5.756,10.624 5.756,19.296 v 54.157 c 0,3.693 1.206,6.785 3.625,9.273 2.415,2.484 5.471,3.732 9.169,3.732 C -5.473,3.732 -2.418,2.484 0,0" /></g><g
           transform="translate(886.835,146.6594)"
           id="g48"><path
             id="path50"
             style="fill:#5D6165;fill-opacity:1;fill-rule:nonzero;stroke:none"
             d="M 0,0 H 55.861 V 1.493 C 55.293,7.462 52.378,12.579 47.121,16.845 41.86,21.107 35.89,23.24 29.21,23.24 12.719,23.24 2.985,15.49 0,0 m 79.104,-18.122 c -2.559,-2.133 -5.544,-3.199 -8.957,-3.199 h -70.36 c 1.705,-8.391 5.612,-14.963 11.726,-19.722 6.11,-4.766 13.007,-7.144 20.682,-7.144 5.827,0 10.375,0.534 13.646,1.6 3.268,1.066 5.864,2.2 7.782,3.411 1.92,1.207 3.231,2.026 3.945,2.451 2.559,1.282 4.974,1.918 7.249,1.918 2.985,0 5.543,-1.063 7.676,-3.196 2.132,-2.133 3.198,-4.621 3.198,-7.465 0,-3.836 -1.992,-7.32 -5.969,-10.446 -3.983,-3.273 -9.313,-6.042 -15.992,-8.316 -6.683,-2.271 -13.432,-3.411 -20.254,-3.411 -11.941,0 -22.355,2.486 -31.238,7.462 -8.884,4.976 -15.744,11.834 -20.575,20.576 -4.834,8.744 -7.249,18.583 -7.249,29.532 0,12.223 2.558,22.952 7.675,32.194 5.118,9.239 11.867,16.312 20.256,21.214 8.385,4.906 17.341,7.358 26.865,7.358 9.381,0 18.23,-2.559 26.546,-7.676 8.315,-5.118 14.959,-12.012 19.935,-20.681 4.973,-8.673 7.463,-18.056 7.463,-28.147 -0.144,-3.41 -1.492,-6.183 -4.05,-8.313" /></g><g
           transform="translate(1121.0781,229.7483)"
           id="g52"><path
             id="path54"
             style="fill:#5D6165;fill-opacity:1;fill-rule:nonzero;stroke:none"
             d="m 0,0 c -47.569,0 -86.269,-38.701 -86.269,-86.271 0,-47.569 38.7,-86.268 86.269,-86.268 47.57,0 86.271,38.699 86.271,86.268 C 86.271,-38.701 47.57,0 0,0 m 0,-191.896 c -58.242,0 -105.624,47.383 -105.624,105.625 0,58.243 47.382,105.626 105.624,105.626 58.243,0 105.627,-47.383 105.627,-105.626 0,-58.242 -47.384,-105.625 -105.627,-105.625" /></g><g
           transform="translate(1090.0225,170.3615)"
           id="g56"><path
             id="path58"
             style="fill:#5D6165;fill-opacity:1;fill-rule:nonzero;stroke:none"
             d="M 0,0 C 9.321,13.373 19.922,25.79 31.029,37.7 44.93,22.734 58.221,7.026 68.872,-10.468 c 4.985,-8.478 9.777,-17.555 10.6,-27.526 0.304,-10.905 -3.188,-21.881 -9.849,-30.522 -7.098,-9.442 -17.789,-16.083 -29.394,-18.266 -13.606,-2.61 -28.339,0.761 -39.163,9.494 -12.794,9.899 -20.255,26.734 -18.063,42.857 C -14.407,-21.708 -7.188,-10.579 0,0" /></g></g></g></g></svg>
